<svg xmlns="http://www.w3.org/2000/svg" viewBox="0 0 1216.87 222.13"><defs><style>.cls-1{fill:#ffffff;}.cls-2{fill:#00000000;}</style></defs><g id="Layer_2" data-name="Layer 2"><g id="Layer_1-2" data-name="Layer 1"><g id="Layer_2-2" data-name="Layer 2"><g id="Layer_1-2-2" data-name="Layer 1-2"><path class="cls-1" d="M169.92,0H33.35A33.34,33.34,0,0,0,0,33.33H0V169.92a33.36,33.36,0,0,0,33.35,33.34H169.92a33.33,33.33,0,0,0,33.34-33.32V33.33A33.32,33.32,0,0,0,170,0ZM101.64,174.47a75.39,75.39,0,0,1-70.7-49.35L46.86,117l.45-.23a57.1,57.1,0,0,0,108.3,1.07l.48.24,15.85,8.12A75.42,75.42,0,0,1,101.64,174.47Z"/><path class="cls-2" d="M171.94,126.15a75.31,75.31,0,0,1-141-1L46.86,117l.45-.23a57.1,57.1,0,0,0,108.3,1.07l.48.24Z"/><path class="cls-1" d="M890.86,60.52q24.93,0,41.62,17t16.68,42.56q0,25.5-16.68,42.55t-41.62,17.06a54.94,54.94,0,0,1-49.23-29.1v68.77h-13V63.24h13V89.5a53.54,53.54,0,0,1,20.12-21.19A55.49,55.49,0,0,1,890.86,60.52Zm-35.78,93.23q13.45,13.45,33.59,13.46t33.58-13.46q13.46-13.45,13.46-33.62T922.25,86.51Q908.8,73.06,888.67,73.05T855.08,86.51Q841.63,100,841.63,120.13t13.45,33.62Z"/><path class="cls-1" d="M1070.43,63.24h13V177h-13V150.64A54.32,54.32,0,0,1,1050.31,172a55.27,55.27,0,0,1-29.1,7.79q-24.84,0-41.46-17.11t-16.63-42.5q0-25.4,16.63-42.5t41.46-17.11a55.61,55.61,0,0,1,29.1,7.73,54,54,0,0,1,20.12,21.25Zm-47,104q20.13,0,33.59-13.46t13.45-33.62q0-20.16-13.45-33.62t-33.59-13.46q-20,0-33.42,13.46t-13.4,33.62q0,20.16,13.4,33.62t33.38,13.43Z"/><path class="cls-1" d="M1202.32,63.24h14.55l-65,140.37a32.16,32.16,0,0,1-10.78,13.73,25.53,25.53,0,0,1-14.93,4.79,31.09,31.09,0,0,1-12.86-2.94,33.54,33.54,0,0,1-10.88-7.63l5.8-9.81a20,20,0,0,0,16.08,7.85q10.17,0,15.75-11.12l10.5-21.68L1098.83,63.24h15l44.41,98.84Z"/><path class="cls-1" d="M326.74,181.35a94.5,94.5,0,0,1-34.45-6.59A84,84,0,0,1,264,157.16l13.9-20.27a70.69,70.69,0,0,0,22.37,14.87,66.53,66.53,0,0,0,26.52,5.61q13.47,0,22.65-5.77t9.19-14.93a14.64,14.64,0,0,0-6.13-12.1,53.59,53.59,0,0,0-6.12-4,42,42,0,0,0-7.93-3.16c-3.25-1-5.91-1.74-8-2.28s-4.8-1.18-8.15-1.91a130.9,130.9,0,0,1-20.3-6.36,80.61,80.61,0,0,1-16.73-9.32A39.64,39.64,0,0,1,273.36,84a37.34,37.34,0,0,1-4.27-17.82q0-19.83,16-32T326.55,22a83.42,83.42,0,0,1,30,5.23q13.68,5.24,22.43,14l-12.63,20q-6.57-6.75-17.56-11.11a60.85,60.85,0,0,0-22.7-4.36q-12.91,0-21.17,5.45t-8.26,14.06q0,15.79,33.15,22.45,4.15.87,7.77,1.85t9.62,3A90.23,90.23,0,0,1,358,97.11a76.92,76.92,0,0,1,10.23,6.26,48,48,0,0,1,9.08,8.29,37.62,37.62,0,0,1,6.07,10.62,36.42,36.42,0,0,1,2.41,13.3q0,20.16-16.85,33T326.74,181.35Z"/><path class="cls-1" d="M536.63,62.13q19.47,0,31.12,11.66t11.65,30.95v73.88H554.24V112.15q0-11.78-6.89-18.86T529,86.21q-12.13,0-19.64,7.3t-7.49,19.07v66h-25V112.15q0-11.78-7-18.86t-18.43-7.08q-12,0-19.53,7.25t-7.49,19.12v66H399.23V64.85h25.16v13.3q13-16,35.33-16a44.61,44.61,0,0,1,22,5.28A37.22,37.22,0,0,1,496.49,82.2Q510.37,62.13,536.63,62.13Z"/><path class="cls-1" d="M613.16,45.56A15.48,15.48,0,0,1,601.78,41a15.24,15.24,0,0,1-4.6-11.22,15.15,15.15,0,0,1,4.6-11.34,16.89,16.89,0,0,1,22.86,0,15.14,15.14,0,0,1,4.6,11.34A15.17,15.17,0,0,1,624.64,41,15.72,15.72,0,0,1,613.16,45.56ZM600.58,178.62V64.85h25.16V178.62Z"/><path class="cls-1" d="M648.66,178.62V17.88h25.16V178.62Z"/><path class="cls-1" d="M810.08,122a73,73,0,0,1-.65,9.8H716.88a33.89,33.89,0,0,0,13,19.67q9.9,7.36,23.79,7.36a45.25,45.25,0,0,0,20-4.47A39,39,0,0,0,788,143.1l17,14.49A61.14,61.14,0,0,1,782.46,175,69.31,69.31,0,0,1,753,181.35q-27.13,0-45.13-17.22t-18-42.83a58.87,58.87,0,0,1,7.87-30.13,56.5,56.5,0,0,1,21.72-21.31,61.85,61.85,0,0,1,30.68-7.73q25.71,0,42.83,17.05T810.08,122ZM749.91,84.68A32.63,32.63,0,0,0,728.75,92a35.21,35.21,0,0,0-12.09,19.29h66.62A33.91,33.91,0,0,0,771.3,92,33.29,33.29,0,0,0,749.91,84.68Z"/></g></g></g></g></svg>